<svg width="224" height="36" viewBox="0 0 224 36" fill="none" xmlns="http://www.w3.org/2000/svg">
<g clip-path="url(#clip0_0_193)">
<path d="M39.6199 17.7297V28.7709C39.6199 31.7048 37.879 34.3259 35.1788 35.4484C34.2824 35.8217 33.3478 36 32.4185 36C30.5519 36 28.718 35.2673 27.3407 33.884L17.1466 23.6441L16.1136 22.6068L13.2276 19.7166C13.2139 19.7029 13.2003 19.6892 13.1866 19.6755C12.6974 19.1952 12.1672 18.7671 11.5878 18.4076C10.9128 17.9712 10.1776 17.6309 9.40416 17.4003C8.25358 17.0683 7.0456 16.8898 5.7939 16.8898C3.71411 16.8898 1.74363 17.3838 0 18.2703V7.22909C0 4.29519 1.74091 1.67417 4.44381 0.55165C5.33749 0.178394 6.2749 0 7.20412 0C9.07074 0 10.9046 0.73279 12.282 2.11604L22.4759 12.3559L23.5091 13.3933L26.3896 16.2834L26.4306 16.3245C26.9171 16.8048 27.45 17.2329 28.0293 17.5924C28.7044 18.0288 29.4395 18.3691 30.213 18.5997C31.3608 18.9317 32.5715 19.1102 33.8233 19.1102C35.9058 19.1102 37.8763 18.6162 39.6199 17.7297Z" fill="url(#paint0_linear_0_193)"/>
<path d="M11.5905 29.9206C11.5905 33.1482 8.99421 35.7637 5.7939 35.7637C2.59633 35.7637 0 33.1509 0 29.9206C0 26.6959 2.59633 24.0803 5.7939 24.0803C8.99421 24.0803 11.5905 26.6931 11.5905 29.9206Z" fill="url(#paint1_linear_0_193)"/>
<path d="M39.6199 6.07894C39.6199 9.30377 37.0236 11.9193 33.8233 11.9193C30.6256 11.9193 28.0293 9.30651 28.0293 6.07894C28.0293 2.85138 30.6256 0.23584 33.8233 0.23584C37.0236 0.23584 39.6199 2.85138 39.6199 6.07894Z" fill="url(#paint2_linear_0_193)"/>
<path d="M39.6199 17.7297V28.771C39.6199 31.7049 37.879 34.3258 35.1788 35.4485C34.2824 35.8216 33.3478 36.0001 32.4185 36.0001C30.5519 36.0001 28.718 35.2672 27.3407 33.884L17.1466 23.6442L16.1136 22.6067L13.2276 19.7167C13.2139 19.703 13.2003 19.6893 13.1866 19.6756C12.6974 19.1953 12.1672 18.7672 11.5878 18.4076C10.9128 17.9713 10.1776 17.6309 9.40416 17.4004C8.25358 17.0682 7.0456 16.8899 5.7939 16.8899C3.71411 16.8899 1.74363 17.3839 0 18.2704C0 18.2704 3.11013 4.40226 11.1806 11.4831L27.1357 26.084C27.5593 26.471 28.0212 26.8114 28.524 27.0858C30.9536 28.4142 37.3625 30.5385 39.6199 17.7297Z" fill="url(#paint3_linear_0_193)"/>
<path d="M63.6987 9.13647C66.2649 9.13647 68.3202 9.95709 69.8698 11.6011C71.4192 13.245 72.1927 15.4735 72.1927 18.2868V31.9243H67.4154V18.7753C67.4154 17.1176 66.9727 15.8441 66.0872 14.9549C65.2017 14.0657 63.9938 13.621 62.4606 13.621C60.7196 13.621 59.3477 14.1618 58.3475 15.243C57.3444 16.3244 56.8443 17.9163 56.8443 20.0185V31.9243H52.0644V9.71558H56.8417V12.5589C58.3174 10.2782 60.6022 9.13647 63.6987 9.13647Z" fill="white"/>
<path d="M98.6889 22.8618H81.0832C81.4356 24.5195 82.2391 25.8096 83.4937 26.7262C84.7453 27.6456 86.3031 28.1039 88.1616 28.1039C90.6676 28.1039 92.5698 27.1873 93.8679 25.3511L97.8062 27.662C95.6526 30.8896 92.4249 32.5033 88.1177 32.5033C84.5485 32.5033 81.6433 31.4084 79.4051 29.2154C77.1941 26.9952 76.0873 24.1956 76.0873 20.82C76.0873 17.532 77.1777 14.7654 79.3613 12.5122C81.515 10.2617 84.3162 9.13647 87.7653 9.13647C90.9793 9.13647 93.633 10.2782 95.7264 12.5562C97.8198 14.8369 98.8666 17.6061 98.8666 20.8638C98.8638 21.4567 98.8064 22.1236 98.6889 22.8618ZM81.0393 18.9536H94.0428C93.7176 17.2054 92.9879 15.8605 91.8538 14.911C90.7196 13.9642 89.3394 13.4893 87.7188 13.4893C85.9506 13.4893 84.4747 13.9779 83.2941 14.9549C82.1162 15.9346 81.3619 17.2658 81.0393 18.9536Z" fill="white"/>
<path d="M114.701 9.71569V14.3347H109.216V24.9945C109.216 25.9139 109.421 26.5726 109.837 26.9705C110.249 27.3712 110.862 27.5936 111.673 27.6375C112.485 27.6814 113.493 27.6759 114.704 27.6155V31.9244C111.047 32.369 108.424 32.0507 106.83 30.9693C105.237 29.8879 104.442 27.8982 104.442 24.9945V14.3347H100.372V9.71569H104.442V4.91825L109.219 3.49658V9.71569H114.701Z" fill="white"/>
<path d="M122.529 15.8441C122.529 16.5247 122.881 17.0819 123.589 17.51C124.297 17.9409 125.33 18.3472 126.685 18.7314C127.719 18.9673 128.618 19.2199 129.383 19.4862C130.148 19.7523 130.96 20.1448 131.815 20.6635C132.671 21.1822 133.327 21.8628 133.783 22.7082C134.239 23.5535 134.453 24.536 134.425 25.6613C134.425 27.7938 133.6 29.468 131.949 30.681C130.298 31.8969 128.249 32.5033 125.8 32.5033C123.616 32.5033 121.744 32.045 120.181 31.1256C118.618 30.209 117.484 28.9355 116.776 27.3052L120.889 24.9065C121.627 27.0391 123.261 28.1039 125.8 28.1039C128.306 28.1039 129.56 27.275 129.56 25.6174C129.56 24.4043 128.159 23.4547 125.357 22.7741C124.297 22.5078 123.403 22.2415 122.682 21.9754C121.957 21.7092 121.162 21.3249 120.293 20.82C119.424 20.3178 118.76 19.6508 118.303 18.822C117.847 17.9931 117.631 17.0297 117.661 15.9346C117.661 13.89 118.426 12.2488 119.962 11.0028C121.526 9.75948 123.458 9.13647 125.756 9.13647C127.585 9.13647 129.213 9.54267 130.643 10.3578C132.072 11.1729 133.171 12.3064 133.939 13.7555L129.913 16.0198C129.175 14.3319 127.79 13.4866 125.756 13.4866C124.811 13.4866 124.037 13.6951 123.433 14.1096C122.832 14.5267 122.529 15.1058 122.529 15.8441Z" fill="white"/>
<path d="M148.494 32.5033C145.221 32.5033 142.463 31.3782 140.221 29.1276C137.951 26.8469 136.817 24.0777 136.817 20.82C136.817 17.5622 137.951 14.793 140.221 12.5122C142.463 10.2617 145.221 9.13647 148.494 9.13647C151.768 9.13647 154.524 10.2617 156.767 12.5122C159.039 14.793 160.172 17.5622 160.172 20.82C160.172 24.0777 159.039 26.8469 156.767 29.1276C154.527 31.3782 151.768 32.5033 148.494 32.5033ZM141.594 20.82C141.594 22.8344 142.258 24.5058 143.584 25.8397C144.909 27.1735 146.546 27.8377 148.494 27.8377C150.441 27.8377 152.078 27.1708 153.403 25.8397C154.731 24.5058 155.392 22.8344 155.392 20.82C155.392 18.8055 154.729 17.134 153.403 15.8002C152.075 14.4664 150.441 13.8022 148.494 13.8022C146.549 13.8022 144.911 14.4691 143.584 15.8002C142.258 17.134 141.594 18.8055 141.594 20.82Z" fill="white"/>
<path d="M188.661 9.13647C191.167 9.13647 193.188 9.9516 194.72 11.5791C196.253 13.2094 197.022 15.3995 197.022 18.1522V31.9215H192.245V18.4651C192.245 16.9556 191.862 15.77 191.094 14.911C190.325 14.052 189.279 13.6238 187.954 13.6238C186.45 13.6238 185.27 14.1205 184.414 15.1113C183.558 16.1048 183.132 17.5622 183.132 19.4862V31.9243H178.355V18.4651C178.355 16.9254 177.994 15.7343 177.272 14.889C176.548 14.0436 175.526 13.6238 174.199 13.6238C172.722 13.6238 171.537 14.1288 170.637 15.1333C169.738 16.1405 169.287 17.5924 169.287 19.4862V31.9243H164.51V9.71558H169.287V12.3805C170.703 10.2178 172.81 9.13647 175.615 9.13647C178.445 9.13647 180.538 10.3056 181.895 12.6467C183.337 10.3084 185.592 9.13647 188.661 9.13647Z" fill="white"/>
<path d="M223.517 22.8618H205.911C206.264 24.5195 207.067 25.8096 208.323 26.7262C209.574 27.6456 211.131 28.1039 212.989 28.1039C215.496 28.1039 217.399 27.1873 218.696 25.3511L222.635 27.662C220.481 30.8896 217.254 32.5033 212.947 32.5033C209.376 32.5033 206.471 31.4084 204.234 29.2154C202.023 26.9952 200.916 24.1956 200.916 20.82C200.916 17.532 202.007 14.7654 204.19 12.5122C206.344 10.2617 209.144 9.13647 212.594 9.13647C215.807 9.13647 218.461 10.2782 220.554 12.5562C222.648 14.8369 223.694 17.6061 223.694 20.8638C223.693 21.4567 223.635 22.1236 223.517 22.8618ZM205.868 18.9536H218.871C218.547 17.2054 217.816 15.8605 216.683 14.911C215.547 13.9642 214.167 13.4893 212.547 13.4893C210.778 13.4893 209.303 13.9779 208.122 14.9549C206.941 15.9346 206.191 17.2658 205.868 18.9536Z" fill="white"/>
</g>
<defs>
<linearGradient id="paint0_linear_0_193" x1="5.85767" y1="-2.24766" x2="37.4965" y2="43.2798" gradientUnits="userSpaceOnUse">
<stop stop-color="#69E0F7"/>
<stop offset="1" stop-color="#3C58F7"/>
</linearGradient>
<linearGradient id="paint1_linear_0_193" x1="5.79633" y1="24.1922" x2="5.79633" y2="36.3328" gradientUnits="userSpaceOnUse">
<stop stop-color="#69C4F7"/>
<stop offset="1" stop-color="#3C58F7"/>
</linearGradient>
<linearGradient id="paint2_linear_0_193" x1="33.8258" y1="-0.583649" x2="33.8258" y2="12.172" gradientUnits="userSpaceOnUse">
<stop stop-color="#69E0F7"/>
<stop offset="1" stop-color="#3C58F7"/>
</linearGradient>
<linearGradient id="paint3_linear_0_193" x1="0.00131183" y1="22.7346" x2="39.6197" y2="22.7346" gradientUnits="userSpaceOnUse">
<stop stop-color="#3C58F7"/>
<stop offset="1" stop-color="#69E0F7"/>
</linearGradient>
<clipPath id="clip0_0_193">
<rect width="224" height="36" fill="white"/>
</clipPath>
</defs>
</svg>
